<svg width="111" height="82" viewBox="0 0 111 82" fill="none" xmlns="http://www.w3.org/2000/svg">
<path d="M7.956 32.036C7.62 32.036 7.368 31.808 7.2 31.352C6.84 30.56 6.66 29.12 6.66 27.032C6.66 25.016 6.696 22.7 6.768 20.084C6.792 19.244 6.804 17.948 6.804 16.196L6.696 16.052H2.7C2.388 16.052 2.136 15.884 1.944 15.548C1.776 15.188 1.644 14.696 1.548 14.072C1.428 13.352 1.368 12.32 1.368 10.976V10.472C1.368 10.232 1.38 10.04 1.404 9.896V9.356V9.032C1.404 8.888 1.476 8.768 1.62 8.672C1.764 8.552 1.932 8.468 2.124 8.42C2.364 8.348 2.724 8.312 3.204 8.312H5.94C6.54 8.312 6.996 8.324 7.308 8.348L8.64 8.384H21.6C22.536 8.384 23.148 8.396 23.436 8.42C23.556 8.444 23.724 8.468 23.94 8.492C24.156 8.516 24.312 8.564 24.408 8.636C24.576 8.708 24.672 8.804 24.696 8.924C24.744 9.02 24.768 9.176 24.768 9.392V15.332C24.768 15.596 24.66 15.776 24.444 15.872C24.3 15.92 24.108 15.944 23.868 15.944H22.716H21.528C20.976 15.944 20.556 15.92 20.268 15.872H19.188C18.972 15.872 18.852 15.92 18.828 16.016C18.828 16.04 18.816 16.076 18.792 16.124C18.768 16.148 18.756 16.184 18.756 16.232V16.772V17.996C18.756 18.356 18.744 18.632 18.72 18.824C18.72 19.52 18.672 21.044 18.576 23.396L18.504 24.476C18.456 25.484 18.408 26.216 18.36 26.672V30.092C18.36 30.908 18.192 31.424 17.856 31.64C17.544 31.76 17.328 31.832 17.208 31.856L16.308 31.892C15.372 31.892 14.712 31.916 14.328 31.964L10.548 32C10.068 32.024 9.204 32.036 7.956 32.036ZM30.9836 32.036C30.5276 32.036 30.3476 31.628 30.4436 30.812C30.4436 30.524 30.5036 30.2 30.6236 29.84C30.6236 29.672 30.6356 29.54 30.6596 29.444C30.6836 29.324 30.6956 29.228 30.6956 29.156C31.2476 26.54 31.8596 23.96 32.5316 21.416L34.9796 11.84C34.9796 11.792 35.0156 11.732 35.0876 11.66C35.1596 11.588 35.2316 11.528 35.3036 11.48H35.5556C35.8436 11.48 36.0716 11.444 36.2396 11.372C36.3836 11.348 36.6356 11.336 36.9956 11.336C37.5716 11.336 38.0036 11.348 38.2916 11.372C38.7236 11.444 39.1676 11.48 39.6236 11.48L41.4956 11.444C41.6876 11.396 41.9156 11.372 42.1796 11.372L43.7636 11.3H44.9516C45.4076 11.3 45.8516 11.312 46.2836 11.336H47.2916C47.5316 11.36 47.8796 11.372 48.3356 11.372H49.7036C49.7756 11.372 49.8476 11.384 49.9196 11.408C49.9916 11.432 50.0516 11.456 50.0996 11.48C50.1956 11.528 50.3156 11.552 50.4596 11.552H50.7836C50.9516 11.672 51.0356 11.792 51.0356 11.912L53.5916 21.416C54.3836 24.464 55.0076 27.044 55.4636 29.156C55.4636 29.276 55.4996 29.504 55.5716 29.84C55.6676 30.32 55.7156 30.704 55.7156 30.992C55.7156 31.16 55.6916 31.388 55.6436 31.676C55.5236 31.916 55.3556 32.036 55.1396 32.036H54.7436C54.4316 32.036 54.1916 32.024 54.0236 32H53.2316H52.4756H51.8636C51.6956 32 51.5996 31.988 51.5756 31.964H49.5956L49.5596 31.892C49.5116 31.844 49.4396 31.82 49.3436 31.82L49.2356 31.892C49.2356 31.94 49.2116 31.964 49.1636 31.964H49.0556H48.8036C48.6836 31.916 48.4676 31.892 48.1556 31.892C47.5796 31.844 47.0996 31.82 46.7156 31.82C46.4516 31.268 46.1396 30.056 45.7796 28.184C45.2756 28.256 44.6996 28.292 44.0516 28.292H43.1156H42.2156C42.1196 28.652 42.0596 28.952 42.0356 29.192C42.0116 29.312 41.9156 29.72 41.7476 30.416C41.5796 31.112 41.4236 31.58 41.2796 31.82L41.0636 31.892C40.9916 31.916 40.9316 31.94 40.8836 31.964C40.8356 31.964 40.8116 31.964 40.8116 31.964H40.7396C40.5956 31.964 40.4996 31.94 40.4516 31.892C40.3556 31.844 40.2956 31.82 40.2716 31.82L38.9036 31.892H37.8956C37.7756 31.916 37.6796 31.94 37.6076 31.964C37.5356 31.964 37.4876 31.964 37.4636 31.964H34.5836H34.2956C34.0796 31.988 33.6356 32 32.9636 32H32.0996C31.9556 32.024 31.7276 32.036 31.4156 32.036H30.9836ZM45.4556 24.332C45.3116 23.516 45.2276 23.036 45.2036 22.892L44.9156 21.164C44.8676 20.828 44.8196 20.528 44.7716 20.264C44.7236 19.976 44.6876 19.712 44.6636 19.472C44.5916 19.184 44.5316 18.92 44.4836 18.68C44.4596 18.416 44.4236 18.176 44.3756 17.96C44.3516 17.816 44.3276 17.636 44.3036 17.42C44.2796 17.18 44.2436 17.012 44.1956 16.916L44.1236 16.484C44.1236 16.388 44.0996 16.304 44.0516 16.232L44.0156 16.016C43.9676 16.16 43.9436 16.232 43.9436 16.232V16.376V16.484C43.9436 16.508 43.9316 16.556 43.9076 16.628C43.8836 16.676 43.8596 16.772 43.8356 16.916C43.8116 17.036 43.7876 17.192 43.7636 17.384C43.7396 17.552 43.7036 17.744 43.6556 17.96L43.4036 19.436L43.1156 21.092L43.0076 21.884C42.9596 22.076 42.9116 22.388 42.8636 22.82C42.6476 23.9 42.5516 24.392 42.5756 24.296H44.1596C44.1836 24.272 44.2196 24.248 44.2676 24.224C44.3156 24.176 44.3516 24.152 44.3756 24.152H44.4836C44.6036 24.152 44.6996 24.164 44.7716 24.188C44.8676 24.212 44.9516 24.236 45.0236 24.26C45.1676 24.308 45.3116 24.332 45.4556 24.332ZM72.1538 32.18L71.6858 32.108H71.1098C70.7498 32.06 70.1258 32.012 69.2378 31.964C69.0458 31.964 68.8658 31.952 68.6978 31.928C68.5298 31.904 68.3738 31.892 68.2298 31.892H67.4378L67.0778 31.856C66.3098 31.856 65.7458 31.868 65.3858 31.892C65.0258 31.94 64.4618 31.964 63.6938 31.964H62.9738L62.3258 32L62.2178 31.856V31.46V30.56V29.624V29.012V26.564C62.2178 25.988 62.1938 25.568 62.1458 25.304V24.44L62.2898 22.892C62.3618 21.932 62.3978 20.552 62.3978 18.752C62.4458 15.848 62.6258 13.748 62.9378 12.452C63.1058 11.756 63.3818 11.312 63.7658 11.12L67.9778 11.156C68.3378 11.18 68.8538 11.192 69.5258 11.192H71.2538C71.3738 11.216 71.5898 11.24 71.9018 11.264C72.2378 11.288 72.4898 11.348 72.6578 11.444C72.8018 11.564 72.8978 11.732 72.9458 11.948C73.0178 12.14 73.0538 12.428 73.0538 12.812L73.0178 13.1V13.532C72.9458 13.7 72.9098 13.868 72.9098 14.036C72.8618 14.228 72.8498 14.42 72.8738 14.612V15.152C72.8978 15.272 72.9098 15.44 72.9098 15.656L72.9458 15.944V16.772L72.9818 17.924C73.0058 18.164 73.0178 18.5 73.0178 18.932C73.0658 19.268 73.1258 19.496 73.1978 19.616C73.1978 19.784 73.1858 19.964 73.1618 20.156C73.1378 20.348 73.1258 20.54 73.1258 20.732C73.1018 21.02 73.0898 21.452 73.0898 22.028C73.0898 22.58 73.1018 22.988 73.1258 23.252C73.1258 23.636 73.1858 24.032 73.3058 24.44C73.5458 24.536 73.8218 24.584 74.1338 24.584C74.9258 24.584 75.7418 24.572 76.5818 24.548C77.4458 24.524 78.2138 24.452 78.8858 24.332C79.0298 24.356 79.1618 24.452 79.2818 24.62C79.4258 24.788 79.4978 24.932 79.4978 25.052L79.2458 31.244C79.1978 31.388 79.1018 31.484 78.9578 31.532C78.5498 31.724 77.9858 31.844 77.2658 31.892C76.3058 32.036 75.6698 32.108 75.3578 32.108H74.7458C74.2658 32.108 73.9058 32.12 73.6658 32.144C73.1858 32.192 72.8498 32.216 72.6578 32.216L72.1538 32.18ZM100.789 31.892C100.741 31.772 100.681 31.712 100.609 31.712L100.573 31.64C100.549 31.64 100.513 31.628 100.465 31.604C100.441 31.556 100.417 31.532 100.393 31.532L97.5493 28.292C97.5253 28.244 97.4293 28.124 97.2613 27.932C97.0933 27.74 96.9613 27.596 96.8653 27.5C96.6493 27.284 96.5053 27.128 96.4333 27.032C96.2653 26.912 96.1573 26.852 96.1093 26.852C95.9653 26.852 95.8933 26.936 95.8933 27.104V27.86C95.8453 28.124 95.8213 28.508 95.8213 29.012C95.7973 29.3 95.7853 29.684 95.7853 30.164C95.7613 30.404 95.7493 30.656 95.7493 30.92V31.172V31.496C95.7493 31.832 95.7133 32 95.6413 32H95.5333H95.3533H95.1733H95.0293C94.3333 32.072 93.3013 32.108 91.9333 32.108H88.8013H88.2613H87.6133H87.0733H86.8213L85.4533 31.784L85.3453 31.532V31.172C85.3213 31.028 85.3093 30.728 85.3093 30.272C85.2853 29.792 85.2733 28.916 85.2733 27.644C85.2733 27.044 85.2493 26.6 85.2013 26.312V25.232C85.1293 21.584 85.0933 17.852 85.0933 14.036V13.172C85.0453 12.932 85.0213 12.668 85.0213 12.38V12.236V11.984V11.732C85.0213 11.684 85.0453 11.648 85.0933 11.624C85.1413 11.432 85.2253 11.3 85.3453 11.228C85.4893 11.132 85.6693 11.06 85.8853 11.012C85.9813 11.012 86.0653 11.024 86.1373 11.048C86.2333 11.072 86.3413 11.084 86.4613 11.084C86.7973 11.132 87.0013 11.156 87.0733 11.156H93.1933L95.9653 11.192C96.0133 11.192 96.0493 11.204 96.0733 11.228C96.0973 11.252 96.1093 11.288 96.1093 11.336C96.2053 11.576 96.2533 11.828 96.2533 12.092C96.2773 12.212 96.2893 12.38 96.2893 12.596C96.2893 13.628 96.2773 14.396 96.2533 14.9C96.1573 15.548 96.1093 16.196 96.1093 16.844C96.3973 16.844 96.6253 16.784 96.7933 16.664C96.8173 16.64 96.8533 16.616 96.9013 16.592C96.9493 16.568 96.9853 16.532 97.0093 16.484C97.0573 16.412 97.1653 16.316 97.3333 16.196L97.8733 15.656C98.7133 14.912 99.0973 14.564 99.0253 14.612L101.905 11.912C102.169 11.696 102.397 11.504 102.589 11.336C102.805 11.168 102.985 11.024 103.129 10.904C103.537 10.616 103.789 10.472 103.885 10.472C104.005 10.472 104.137 10.592 104.281 10.832C104.521 11.072 104.665 11.228 104.713 11.3C104.929 11.708 105.229 12.104 105.613 12.488C105.997 12.848 106.237 13.076 106.333 13.172C106.741 13.628 107.053 14 107.269 14.288C107.485 14.576 107.665 14.9 107.809 15.26V15.332C107.809 15.692 107.533 16.148 106.981 16.7C106.837 16.844 106.705 16.964 106.585 17.06C106.489 17.156 106.405 17.24 106.333 17.312L105.793 17.852C105.721 17.852 105.625 17.936 105.505 18.104L104.281 19.112C103.825 19.52 103.429 19.856 103.093 20.12L102.805 20.372L102.553 20.552C102.361 20.624 102.241 20.684 102.193 20.732C102.193 20.78 102.181 20.828 102.157 20.876C102.133 20.924 102.121 20.984 102.121 21.056C102.121 21.224 102.169 21.392 102.265 21.56C102.385 21.704 102.505 21.848 102.625 21.992C102.697 22.088 102.853 22.208 103.093 22.352C103.093 22.352 103.213 22.472 103.453 22.712L104.065 23.252L105.253 24.296L106.297 25.268L107.521 26.456C107.929 26.888 108.217 27.236 108.385 27.5C108.577 27.74 108.673 27.944 108.673 28.112C108.673 28.352 108.589 28.532 108.421 28.652C108.037 29.012 107.701 29.288 107.413 29.48C106.933 29.816 106.573 30.08 106.333 30.272C105.445 30.968 104.785 31.436 104.353 31.676C104.257 31.7 103.921 31.844 103.345 32.108L102.769 32.396C102.601 32.492 102.505 32.54 102.481 32.54C102.193 32.684 101.965 32.756 101.797 32.756C101.677 32.756 101.581 32.72 101.509 32.648L100.789 31.892Z" fill="#001AFF"/>
<path d="M7.956 65.036C7.62 65.036 7.368 64.808 7.2 64.352C6.84 63.56 6.66 62.12 6.66 60.032C6.66 58.016 6.696 55.7 6.768 53.084C6.792 52.244 6.804 50.948 6.804 49.196L6.696 49.052H2.7C2.388 49.052 2.136 48.884 1.944 48.548C1.776 48.188 1.644 47.696 1.548 47.072C1.428 46.352 1.368 45.32 1.368 43.976V43.472C1.368 43.232 1.38 43.04 1.404 42.896V42.356V42.032C1.404 41.888 1.476 41.768 1.62 41.672C1.764 41.552 1.932 41.468 2.124 41.42C2.364 41.348 2.724 41.312 3.204 41.312H5.94C6.54 41.312 6.996 41.324 7.308 41.348L8.64 41.384H21.6C22.536 41.384 23.148 41.396 23.436 41.42C23.556 41.444 23.724 41.468 23.94 41.492C24.156 41.516 24.312 41.564 24.408 41.636C24.576 41.708 24.672 41.804 24.696 41.924C24.744 42.02 24.768 42.176 24.768 42.392V48.332C24.768 48.596 24.66 48.776 24.444 48.872C24.3 48.92 24.108 48.944 23.868 48.944H22.716H21.528C20.976 48.944 20.556 48.92 20.268 48.872H19.188C18.972 48.872 18.852 48.92 18.828 49.016C18.828 49.04 18.816 49.076 18.792 49.124C18.768 49.148 18.756 49.184 18.756 49.232V49.772V50.996C18.756 51.356 18.744 51.632 18.72 51.824C18.72 52.52 18.672 54.044 18.576 56.396L18.504 57.476C18.456 58.484 18.408 59.216 18.36 59.672V63.092C18.36 63.908 18.192 64.424 17.856 64.64C17.544 64.76 17.328 64.832 17.208 64.856L16.308 64.892C15.372 64.892 14.712 64.916 14.328 64.964L10.548 65C10.068 65.024 9.204 65.036 7.956 65.036ZM41.2436 65.9C41.0516 65.9 40.7876 65.876 40.4516 65.828C40.2836 65.78 40.0196 65.756 39.6596 65.756C38.7476 65.756 37.6196 65.552 36.2756 65.144H36.0236C35.8556 65.144 35.6756 65.096 35.4836 65C35.4356 64.952 35.3756 64.916 35.3036 64.892C35.2316 64.844 35.1476 64.784 35.0516 64.712L34.2956 64.28C33.5756 63.872 32.9396 63.308 32.3876 62.588C31.8356 61.844 31.3916 61.028 31.0556 60.14C30.4076 58.508 30.0836 56.84 30.0836 55.136C30.0836 53.24 30.4676 51.416 31.2356 49.664C32.0516 47.816 33.1436 46.352 34.5116 45.272C36.0236 44.072 37.7036 43.472 39.5516 43.472C40.1276 43.472 40.5716 43.496 40.8836 43.544C40.8836 43.496 40.9196 43.472 40.9916 43.472H41.0996C42.7796 43.472 44.2796 43.532 45.5996 43.652C46.7276 43.82 47.7716 44.168 48.7316 44.696C50.6516 45.968 52.0316 47.36 52.8716 48.872C53.7596 50.552 54.2036 52.532 54.2036 54.812C54.2036 57.092 53.6636 59.228 52.5836 61.22L52.2236 61.796C52.1276 61.94 52.0676 62.012 52.0436 62.012L51.9356 62.192L51.6836 62.336C50.6516 63.872 49.0916 64.916 47.0036 65.468C45.6116 65.756 43.6916 65.9 41.2436 65.9ZM41.8556 63.2C42.0716 63.2 42.2396 63.068 42.3596 62.804C42.6476 62.372 42.8876 61.532 43.0796 60.284C43.1036 60.068 43.1636 59.588 43.2596 58.844C43.3556 58.1 43.4156 57.404 43.4396 56.756C43.5356 55.124 43.5836 54.116 43.5836 53.732V52.904V52.616C43.5836 51.752 43.5476 51.008 43.4756 50.384C43.4036 49.4 43.2596 48.62 43.0436 48.044C42.8276 47.756 42.6596 47.612 42.5396 47.612C42.2996 47.612 42.0716 47.792 41.8556 48.152C41.6396 48.512 41.4716 49.172 41.3516 50.132L40.5956 55.892V56.612V57.08C40.6676 58.088 40.7036 58.748 40.7036 59.06L40.7756 59.924L40.8836 61.076C40.8836 61.268 40.9076 61.436 40.9556 61.58L41.3516 62.912C41.3756 63.008 41.4356 63.08 41.5316 63.128C41.6516 63.176 41.7596 63.2 41.8556 63.2Z" fill="#001AFF"/>
</svg>
